<svg width="24" height="24" viewBox="0 0 24 24" fill="none" xmlns="http://www.w3.org/2000/svg">
<mask id="mask0_1_1566" style="mask-type:alpha" maskUnits="userSpaceOnUse" x="0" y="0" width="24" height="24">
<rect width="24" height="24" fill="white"/>
</mask>
<g mask="url(#mask0_1_1566)">
<path d="M12 24C18.6274 24 24 18.6274 24 12C24 5.37258 18.6274 0 12 0C5.37258 0 0 5.37258 0 12C0 18.6274 5.37258 24 12 24Z" fill="#1977F3"/>
<path d="M16.6712 15.4696L17.2028 12H13.875V9.74886C13.875 8.80047 14.3391 7.87402 15.8308 7.87402H17.3445V4.92085C17.3445 4.92085 15.9709 4.68628 14.658 4.68628C11.9175 4.68628 10.1253 6.34681 10.1253 9.35566V12H7.07764V15.4696H10.1253V23.8549C10.7362 23.9511 11.3623 24 12.0002 24C12.638 24 13.2641 23.9494 13.875 23.8549V15.4696H16.6712Z" fill="white"/>
</g>
</svg>
