<svg width="24" height="24" viewBox="0 0 24 24" fill="none" xmlns="http://www.w3.org/2000/svg">
<mask id="mask0_1_1537" style="mask-type:alpha" maskUnits="userSpaceOnUse" x="0" y="0" width="24" height="24">
<rect width="24" height="24" fill="white"/>
</mask>
<g mask="url(#mask0_1_1537)">
<path d="M18.6509 3.75903C17.7381 2.7196 17.2349 1.38337 17.2353 0H16.1315C16.2741 0.764851 16.571 1.49263 17.0042 2.13892C17.4373 2.78522 17.9976 3.33647 18.6509 3.75903ZM8.43774 11.8928C7.66361 11.8967 6.91301 12.1593 6.30528 12.6389C5.69755 13.1184 5.26757 13.7873 5.0837 14.5393C4.89983 15.2913 4.97263 16.0832 5.29051 16.789C5.6084 17.4949 6.15313 18.0742 6.8381 18.4349C6.46359 17.9179 6.23933 17.3073 6.19007 16.6707C6.14081 16.0342 6.26848 15.3964 6.55898 14.8279C6.84947 14.2593 7.29148 13.7821 7.83618 13.449C8.38087 13.116 9.00703 12.9399 9.6455 12.9404C9.99259 12.945 10.3373 12.999 10.6691 13.1009V8.89358C10.3302 8.84278 9.98816 8.81606 9.6455 8.81363H9.46146V12.0127C9.12785 11.9232 8.78299 11.8828 8.43774 11.8928Z" fill="#FE2C55"/>
<path d="M21.7782 5.62244V8.8216C19.7185 8.8176 17.7123 8.16564 16.0438 6.95809V15.3638C16.0349 19.5581 12.6322 22.9537 8.43792 22.9537C6.88017 22.9565 5.35993 22.4759 4.08691 21.5781C5.12498 22.6946 6.47523 23.4727 7.96178 23.8109C9.44833 24.1491 11.0023 24.0318 12.4212 23.4743C13.8402 22.9167 15.0583 21.9448 15.917 20.6851C16.7757 19.4254 17.2352 17.9363 17.2355 16.4118V8.02987C18.9096 9.22946 20.9183 9.87291 22.9779 9.86935V5.75011C22.5746 5.74891 22.1726 5.70613 21.7782 5.62244Z" fill="#FE2C55"/>
<path d="M16.0436 15.3638V6.95809C17.7172 8.15877 19.7263 8.80233 21.786 8.79757V5.59852C20.5692 5.34154 19.4688 4.69593 18.6509 3.75903C17.9977 3.33647 17.4374 2.78522 17.0042 2.13892C16.571 1.49263 16.2741 0.764851 16.1316 0H13.1086V16.5557C13.0791 17.2763 12.8259 17.9699 12.3842 18.54C11.9424 19.1102 11.334 19.5285 10.6436 19.737C9.95312 19.9454 9.21487 19.9336 8.53144 19.7031C7.848 19.4727 7.25332 19.0351 6.83004 18.4511C6.14496 18.0905 5.60011 17.5111 5.28214 16.8052C4.96418 16.0993 4.89134 15.3074 5.07522 14.5553C5.25911 13.8032 5.68915 13.1342 6.29696 12.6547C6.90478 12.1751 7.65548 11.9126 8.42968 11.9087C8.7769 11.9118 9.1218 11.9657 9.4534 12.0687V8.86955C7.9823 8.8945 6.55023 9.34694 5.33181 10.1717C4.1134 10.9965 3.16127 12.1579 2.59153 13.5144C2.02179 14.871 1.85905 16.364 2.12315 17.8114C2.38725 19.2588 3.06679 20.5981 4.0789 21.666C5.36442 22.5342 6.88682 22.984 8.43777 22.9537C12.6321 22.9537 16.0348 19.5581 16.0436 15.3638Z" fill="#12151C"/>
</g>
</svg>
