<svg width="24" height="24" viewBox="0 0 24 24" fill="none" xmlns="http://www.w3.org/2000/svg">
  <g fill="none" stroke="#22d3ee" stroke-width="2" stroke-linecap="round" stroke-linejoin="round">
    <path d="M8 4H16V7C16 9.20914 14.2091 11 12 11C9.79086 11 8 9.20914 8 7V4Z" />
    <path d="M8 5H5.5C5.22386 5 5 5.22386 5 5.5V6C5 8.20914 6.79086 10 9 10H9.5" />
    <path d="M16 5H18.5C18.7761 5 19 5.22386 19 5.5V6C19 8.20914 17.2091 10 15 10H14.5" />
    <path d="M12 11V15" />
    <path d="M9 20H15" />
    <path d="M10 15H14L15.5 20H8.5L10 15Z" />
    <path d="M12 7L12.8 8.6L14.6 8.8L13.3 10.1L13.6 12L12 11.2L10.4 12L10.7 10.1L9.4 8.8L11.2 8.6L12 7Z" />
  </g>
</svg>
