<svg width="20" height="20" viewBox="0 0 24 24" fill="none" xmlns="http://www.w3.org/2000/svg">
  <path
    d="M12 3.4C11.2 3.4 10.6 4 10.6 4.8V6C10 6.2 9.4 6.5 8.9 6.8L8 5.9C7.4 5.3 6.5 5.3 5.9 5.9L4.9 6.9C4.3 7.5 4.3 8.4 4.9 9L5.8 9.9C5.5 10.4 5.2 11 5 11.6H3.8C3 11.6 2.4 12.2 2.4 13V14.4C2.4 15.2 3 15.8 3.8 15.8H5C5.2 16.4 5.5 17 5.8 17.5L4.9 18.4C4.3 19 4.3 19.9 4.9 20.5L5.9 21.5C6.5 22.1 7.4 22.1 8 21.5L8.9 20.6C9.4 20.9 10 21.2 10.6 21.4V22.6C10.6 23.4 11.2 24 12 24H13.4C14.2 24 14.8 23.4 14.8 22.6V21.4C15.4 21.2 16 20.9 16.5 20.6L17.4 21.5C18 22.1 18.9 22.1 19.5 21.5L20.5 20.5C21.1 19.9 21.1 19 20.5 18.4L19.6 17.5C19.9 17 20.2 16.4 20.4 15.8H21.6C22.4 15.8 23 15.2 23 14.4V13C23 12.2 22.4 11.6 21.6 11.6H20.4C20.2 11 19.9 10.4 19.6 9.9L20.5 9C21.1 8.4 21.1 7.5 20.5 6.9L19.5 5.9C18.9 5.3 18 5.3 17.4 5.9L16.5 6.8C16 6.5 15.4 6.2 14.8 6V4.8C14.8 4 14.2 3.4 13.4 3.4H12Z"
    stroke="#FFFFFF"
    stroke-width="1.6"
    stroke-linejoin="round"
  />
  <circle cx="12" cy="13.7" r="3.6" stroke="#FFFFFF" stroke-width="1.6"/>
</svg>
