<svg width="24" height="24" viewBox="0 0 24 24" fill="none" xmlns="http://www.w3.org/2000/svg">
<mask id="mask0_1_29329" style="mask-type:alpha" maskUnits="userSpaceOnUse" x="0" y="0" width="24" height="24">
<rect width="24" height="24" fill="white"/>
</mask>
<g mask="url(#mask0_1_29329)">
<path d="M12 24C18.6274 24 24 18.6274 24 12C24 5.37258 18.6274 0 12 0C5.37258 0 0 5.37258 0 12C0 18.6274 5.37258 24 12 24Z" fill="#1977F3"/>
<path d="M16.6707 15.4696L17.2023 12H13.8745V9.74886C13.8745 8.80047 14.3386 7.87402 15.8303 7.87402H17.3441V4.92085C17.3441 4.92085 15.9704 4.68628 14.6575 4.68628C11.917 4.68628 10.1248 6.34681 10.1248 9.35566V12H7.07715V15.4696H10.1248V23.8549C10.7357 23.9511 11.3618 24 11.9997 24C12.6375 24 13.2636 23.9494 13.8745 23.8549V15.4696H16.6707Z" fill="white"/>
</g>
</svg>
