<svg width="24" height="24" viewBox="0 0 24 24" fill="none" xmlns="http://www.w3.org/2000/svg">
<mask id="mask0_1_27702" style="mask-type:alpha" maskUnits="userSpaceOnUse" x="0" y="0" width="24" height="24">
<rect width="24" height="24" fill="white"/>
</mask>
<g mask="url(#mask0_1_27702)">
<path d="M19.875 6.26959C20.2187 6.46505 20.5041 6.74856 20.7018 7.09095C20.8995 7.43333 21.0025 7.82222 21 8.21759V15.5016C21 16.3106 20.557 17.0566 19.842 17.4496L13.092 21.7196C12.7574 21.9033 12.3818 21.9996 12 21.9996C11.6182 21.9996 11.2426 21.9033 10.908 21.7196L4.158 17.4496C3.80817 17.2584 3.51612 16.9768 3.31241 16.6341C3.1087 16.2914 3.0008 15.9003 3 15.5016V8.21659C3 7.40759 3.443 6.66259 4.158 6.26959L10.908 2.28959C11.2525 2.09963 11.6396 2 12.033 2C12.4264 2 12.8135 2.09963 13.158 2.28959L19.908 6.26959H19.875Z" stroke="#12151C" stroke-width="2" stroke-linecap="round" stroke-linejoin="round"/>
<path d="M9 11.9996C9 12.7953 9.31607 13.5583 9.87868 14.121C10.4413 14.6836 11.2044 14.9996 12 14.9996C12.7956 14.9996 13.5587 14.6836 14.1213 14.121C14.6839 13.5583 15 12.7953 15 11.9996C15 11.204 14.6839 10.4409 14.1213 9.87831C13.5587 9.3157 12.7956 8.99963 12 8.99963C11.2044 8.99963 10.4413 9.3157 9.87868 9.87831C9.31607 10.4409 9 11.204 9 11.9996Z" stroke="#12151C" stroke-width="2" stroke-linecap="round" stroke-linejoin="round"/>
</g>
</svg>
